<mxfile host="app.diagrams.net" modified="2021-01-05T05:57:10.103Z" agent="5.0 (Macintosh; Intel Mac OS X 10_15_6) AppleWebKit/605.1.15 (KHTML, like Gecko) Version/14.0.2 Safari/605.1.15" etag="VJDaYVa6fTv__QH0dthx" version="14.1.8" type="github">
  <diagram id="E3I8wUDPVk-HWKV04K93" name="第 1 页">
    <mxGraphModel dx="946" dy="620" grid="1" gridSize="10" guides="1" tooltips="1" connect="1" arrows="1" fold="1" page="1" pageScale="1" pageWidth="3300" pageHeight="2339" math="0" shadow="0">
      <root>
        <mxCell id="0" />
        <mxCell id="1" parent="0" />
        <mxCell id="GRRFxynxzcJDCFm0jAHo-5" value="" style="edgeStyle=orthogonalEdgeStyle;rounded=0;orthogonalLoop=1;jettySize=auto;html=1;" edge="1" parent="1" source="GRRFxynxzcJDCFm0jAHo-1" target="GRRFxynxzcJDCFm0jAHo-4">
          <mxGeometry relative="1" as="geometry" />
        </mxCell>
        <mxCell id="GRRFxynxzcJDCFm0jAHo-1" value="processRequest" style="rounded=1;whiteSpace=wrap;html=1;fillColor=#f8cecc;strokeColor=#b85450;" vertex="1" parent="1">
          <mxGeometry x="240" y="120" width="120" height="40" as="geometry" />
        </mxCell>
        <mxCell id="GRRFxynxzcJDCFm0jAHo-3" value="" style="edgeStyle=orthogonalEdgeStyle;rounded=0;orthogonalLoop=1;jettySize=auto;html=1;dashed=1;" edge="1" parent="1" source="GRRFxynxzcJDCFm0jAHo-2" target="GRRFxynxzcJDCFm0jAHo-1">
          <mxGeometry relative="1" as="geometry" />
        </mxCell>
        <mxCell id="GRRFxynxzcJDCFm0jAHo-2" value="FrameworkServlet 处理请求" style="text;html=1;fillColor=none;align=center;verticalAlign=middle;whiteSpace=wrap;rounded=0;strokeColor=#000000;dashed=1;" vertex="1" parent="1">
          <mxGeometry x="245" y="40" width="110" height="40" as="geometry" />
        </mxCell>
        <mxCell id="GRRFxynxzcJDCFm0jAHo-9" value="" style="edgeStyle=orthogonalEdgeStyle;rounded=0;orthogonalLoop=1;jettySize=auto;html=1;" edge="1" parent="1" source="GRRFxynxzcJDCFm0jAHo-4" target="GRRFxynxzcJDCFm0jAHo-8">
          <mxGeometry relative="1" as="geometry" />
        </mxCell>
        <mxCell id="GRRFxynxzcJDCFm0jAHo-10" value="分发请求" style="edgeLabel;html=1;align=center;verticalAlign=middle;resizable=0;points=[];" vertex="1" connectable="0" parent="GRRFxynxzcJDCFm0jAHo-9">
          <mxGeometry x="-0.1835" y="1" relative="1" as="geometry">
            <mxPoint as="offset" />
          </mxGeometry>
        </mxCell>
        <mxCell id="GRRFxynxzcJDCFm0jAHo-4" value="doService(request, response)" style="rounded=1;whiteSpace=wrap;html=1;fillColor=#f5f5f5;strokeColor=#666666;fontColor=#333333;" vertex="1" parent="1">
          <mxGeometry x="440" y="120" width="200" height="40" as="geometry" />
        </mxCell>
        <mxCell id="GRRFxynxzcJDCFm0jAHo-7" value="" style="edgeStyle=orthogonalEdgeStyle;rounded=0;orthogonalLoop=1;jettySize=auto;html=1;dashed=1;" edge="1" parent="1" source="GRRFxynxzcJDCFm0jAHo-6" target="GRRFxynxzcJDCFm0jAHo-4">
          <mxGeometry relative="1" as="geometry" />
        </mxCell>
        <mxCell id="GRRFxynxzcJDCFm0jAHo-6" value="FrameworkServlet 模版方法，DispatcherServlet 进行处理" style="text;html=1;fillColor=none;align=center;verticalAlign=middle;whiteSpace=wrap;rounded=0;strokeColor=#000000;dashed=1;" vertex="1" parent="1">
          <mxGeometry x="452.5" y="40" width="175" height="40" as="geometry" />
        </mxCell>
        <mxCell id="GRRFxynxzcJDCFm0jAHo-12" value="" style="edgeStyle=orthogonalEdgeStyle;rounded=0;orthogonalLoop=1;jettySize=auto;html=1;" edge="1" parent="1" source="GRRFxynxzcJDCFm0jAHo-8" target="GRRFxynxzcJDCFm0jAHo-11">
          <mxGeometry relative="1" as="geometry" />
        </mxCell>
        <mxCell id="GRRFxynxzcJDCFm0jAHo-21" value="获取当前请求 request 合适的 handler" style="edgeLabel;html=1;align=center;verticalAlign=middle;resizable=0;points=[];" vertex="1" connectable="0" parent="GRRFxynxzcJDCFm0jAHo-12">
          <mxGeometry x="-0.05" y="2" relative="1" as="geometry">
            <mxPoint as="offset" />
          </mxGeometry>
        </mxCell>
        <mxCell id="GRRFxynxzcJDCFm0jAHo-8" value="doDispatch(request, response)" style="rounded=1;whiteSpace=wrap;html=1;fillColor=#f5f5f5;strokeColor=#666666;fontColor=#333333;" vertex="1" parent="1">
          <mxGeometry x="440" y="210" width="200" height="40" as="geometry" />
        </mxCell>
        <mxCell id="GRRFxynxzcJDCFm0jAHo-15" value="" style="edgeStyle=orthogonalEdgeStyle;rounded=0;orthogonalLoop=1;jettySize=auto;html=1;" edge="1" parent="1" source="GRRFxynxzcJDCFm0jAHo-11" target="GRRFxynxzcJDCFm0jAHo-29">
          <mxGeometry relative="1" as="geometry" />
        </mxCell>
        <mxCell id="GRRFxynxzcJDCFm0jAHo-24" value="" style="edgeStyle=orthogonalEdgeStyle;rounded=0;orthogonalLoop=1;jettySize=auto;html=1;" edge="1" parent="1" source="GRRFxynxzcJDCFm0jAHo-11" target="GRRFxynxzcJDCFm0jAHo-23">
          <mxGeometry relative="1" as="geometry" />
        </mxCell>
        <mxCell id="GRRFxynxzcJDCFm0jAHo-25" value="确定当前 handler 合适的适配器 adapter" style="edgeLabel;html=1;align=center;verticalAlign=middle;resizable=0;points=[];" vertex="1" connectable="0" parent="GRRFxynxzcJDCFm0jAHo-24">
          <mxGeometry x="-0.1" relative="1" as="geometry">
            <mxPoint as="offset" />
          </mxGeometry>
        </mxCell>
        <mxCell id="GRRFxynxzcJDCFm0jAHo-11" value="getHandler(processedRequest)" style="rounded=1;whiteSpace=wrap;html=1;fillColor=#f5f5f5;strokeColor=#666666;fontColor=#333333;" vertex="1" parent="1">
          <mxGeometry x="440" y="330" width="200" height="40" as="geometry" />
        </mxCell>
        <mxCell id="GRRFxynxzcJDCFm0jAHo-17" value="" style="edgeStyle=orthogonalEdgeStyle;rounded=0;orthogonalLoop=1;jettySize=auto;html=1;" edge="1" parent="1" source="GRRFxynxzcJDCFm0jAHo-14" target="GRRFxynxzcJDCFm0jAHo-16">
          <mxGeometry relative="1" as="geometry" />
        </mxCell>
        <mxCell id="GRRFxynxzcJDCFm0jAHo-22" value="跨域相关" style="edgeLabel;html=1;align=center;verticalAlign=middle;resizable=0;points=[];" vertex="1" connectable="0" parent="GRRFxynxzcJDCFm0jAHo-17">
          <mxGeometry x="-0.2" y="1" relative="1" as="geometry">
            <mxPoint as="offset" />
          </mxGeometry>
        </mxCell>
        <mxCell id="GRRFxynxzcJDCFm0jAHo-14" value="getHandlerExecutionChain(handler, request)" style="rounded=1;whiteSpace=wrap;html=1;fillColor=#d5e8d4;strokeColor=#82b366;" vertex="1" parent="1">
          <mxGeometry x="30" y="410" width="250" height="40" as="geometry" />
        </mxCell>
        <mxCell id="GRRFxynxzcJDCFm0jAHo-16" value="getCorsHandlerExecutionChain(request, executionChain, config)" style="rounded=1;whiteSpace=wrap;html=1;fillColor=#d5e8d4;strokeColor=#82b366;" vertex="1" parent="1">
          <mxGeometry x="30" y="490" width="250" height="40" as="geometry" />
        </mxCell>
        <mxCell id="GRRFxynxzcJDCFm0jAHo-27" value="" style="edgeStyle=orthogonalEdgeStyle;rounded=0;orthogonalLoop=1;jettySize=auto;html=1;exitX=0.5;exitY=1;exitDx=0;exitDy=0;" edge="1" parent="1" source="GRRFxynxzcJDCFm0jAHo-36" target="GRRFxynxzcJDCFm0jAHo-26">
          <mxGeometry relative="1" as="geometry">
            <mxPoint x="540" y="560" as="sourcePoint" />
          </mxGeometry>
        </mxCell>
        <mxCell id="GRRFxynxzcJDCFm0jAHo-28" value="处理 handler，返回 modelAndView" style="edgeLabel;html=1;align=center;verticalAlign=middle;resizable=0;points=[];" vertex="1" connectable="0" parent="GRRFxynxzcJDCFm0jAHo-27">
          <mxGeometry x="-0.175" y="1" relative="1" as="geometry">
            <mxPoint as="offset" />
          </mxGeometry>
        </mxCell>
        <mxCell id="GRRFxynxzcJDCFm0jAHo-37" value="" style="edgeStyle=orthogonalEdgeStyle;rounded=0;orthogonalLoop=1;jettySize=auto;html=1;" edge="1" parent="1" source="GRRFxynxzcJDCFm0jAHo-23" target="GRRFxynxzcJDCFm0jAHo-36">
          <mxGeometry relative="1" as="geometry" />
        </mxCell>
        <mxCell id="GRRFxynxzcJDCFm0jAHo-38" value="执行拦截器 pre 方法" style="edgeLabel;html=1;align=center;verticalAlign=middle;resizable=0;points=[];" vertex="1" connectable="0" parent="GRRFxynxzcJDCFm0jAHo-37">
          <mxGeometry x="-0.1417" y="1" relative="1" as="geometry">
            <mxPoint as="offset" />
          </mxGeometry>
        </mxCell>
        <mxCell id="GRRFxynxzcJDCFm0jAHo-23" value="getHandlerAdapter&lt;br&gt;(mappedHandler.getHandler())" style="rounded=1;whiteSpace=wrap;html=1;fillColor=#f5f5f5;strokeColor=#666666;fontColor=#333333;" vertex="1" parent="1">
          <mxGeometry x="440" y="430" width="200" height="40" as="geometry" />
        </mxCell>
        <mxCell id="GRRFxynxzcJDCFm0jAHo-40" style="edgeStyle=orthogonalEdgeStyle;rounded=0;orthogonalLoop=1;jettySize=auto;html=1;entryX=1;entryY=0.5;entryDx=0;entryDy=0;" edge="1" parent="1" source="GRRFxynxzcJDCFm0jAHo-26" target="GRRFxynxzcJDCFm0jAHo-39">
          <mxGeometry relative="1" as="geometry" />
        </mxCell>
        <mxCell id="GRRFxynxzcJDCFm0jAHo-47" value="调用目标方法&lt;br&gt;处理返回值" style="edgeLabel;html=1;align=center;verticalAlign=middle;resizable=0;points=[];" vertex="1" connectable="0" parent="GRRFxynxzcJDCFm0jAHo-40">
          <mxGeometry x="0.1692" relative="1" as="geometry">
            <mxPoint x="21" as="offset" />
          </mxGeometry>
        </mxCell>
        <mxCell id="GRRFxynxzcJDCFm0jAHo-53" value="" style="edgeStyle=orthogonalEdgeStyle;rounded=0;orthogonalLoop=1;jettySize=auto;html=1;" edge="1" parent="1" source="GRRFxynxzcJDCFm0jAHo-26" target="GRRFxynxzcJDCFm0jAHo-52">
          <mxGeometry relative="1" as="geometry" />
        </mxCell>
        <mxCell id="GRRFxynxzcJDCFm0jAHo-56" value="设置默认视图对象，如果有" style="edgeLabel;html=1;align=center;verticalAlign=middle;resizable=0;points=[];" vertex="1" connectable="0" parent="GRRFxynxzcJDCFm0jAHo-53">
          <mxGeometry x="-0.0843" relative="1" as="geometry">
            <mxPoint as="offset" />
          </mxGeometry>
        </mxCell>
        <mxCell id="GRRFxynxzcJDCFm0jAHo-26" value="ha.handle(processedRequest, response, mappedHandler.getHandler())" style="rounded=1;whiteSpace=wrap;html=1;fillColor=#f5f5f5;strokeColor=#666666;fontColor=#333333;" vertex="1" parent="1">
          <mxGeometry x="410" y="600" width="260" height="40" as="geometry" />
        </mxCell>
        <mxCell id="GRRFxynxzcJDCFm0jAHo-30" value="" style="edgeStyle=orthogonalEdgeStyle;rounded=0;orthogonalLoop=1;jettySize=auto;html=1;" edge="1" parent="1" source="GRRFxynxzcJDCFm0jAHo-29" target="GRRFxynxzcJDCFm0jAHo-14">
          <mxGeometry relative="1" as="geometry" />
        </mxCell>
        <mxCell id="GRRFxynxzcJDCFm0jAHo-31" value="&lt;span&gt;获取处理当前请求的 handler 链&lt;/span&gt;" style="edgeLabel;html=1;align=center;verticalAlign=middle;resizable=0;points=[];" vertex="1" connectable="0" parent="GRRFxynxzcJDCFm0jAHo-30">
          <mxGeometry x="-0.1143" relative="1" as="geometry">
            <mxPoint as="offset" />
          </mxGeometry>
        </mxCell>
        <mxCell id="GRRFxynxzcJDCFm0jAHo-29" value="getHandlerInternal(request)" style="rounded=1;whiteSpace=wrap;html=1;fillColor=#d5e8d4;strokeColor=#82b366;" vertex="1" parent="1">
          <mxGeometry x="30" y="330" width="250" height="40" as="geometry" />
        </mxCell>
        <mxCell id="GRRFxynxzcJDCFm0jAHo-33" value="" style="edgeStyle=orthogonalEdgeStyle;rounded=0;orthogonalLoop=1;jettySize=auto;html=1;dashed=1;" edge="1" parent="1" source="GRRFxynxzcJDCFm0jAHo-32" target="GRRFxynxzcJDCFm0jAHo-29">
          <mxGeometry relative="1" as="geometry" />
        </mxCell>
        <mxCell id="GRRFxynxzcJDCFm0jAHo-32" value="&lt;span style=&quot;background-color: rgb(255 , 204 , 204)&quot;&gt;根据请求找到对应的后端处理器&lt;br&gt;也就是我们自己写的 controller 里面的对应的方法&lt;/span&gt;" style="text;html=1;fillColor=none;align=center;verticalAlign=middle;whiteSpace=wrap;rounded=0;strokeColor=#000000;dashed=1;" vertex="1" parent="1">
          <mxGeometry x="63.75" y="250" width="182.5" height="50" as="geometry" />
        </mxCell>
        <mxCell id="GRRFxynxzcJDCFm0jAHo-36" value="mappedHandler.applyPreHandle" style="rounded=1;whiteSpace=wrap;html=1;fillColor=#f5f5f5;strokeColor=#666666;fontColor=#333333;" vertex="1" parent="1">
          <mxGeometry x="440" y="510" width="200" height="40" as="geometry" />
        </mxCell>
        <mxCell id="GRRFxynxzcJDCFm0jAHo-42" value="" style="edgeStyle=orthogonalEdgeStyle;rounded=0;orthogonalLoop=1;jettySize=auto;html=1;" edge="1" parent="1" source="GRRFxynxzcJDCFm0jAHo-39" target="GRRFxynxzcJDCFm0jAHo-41">
          <mxGeometry relative="1" as="geometry" />
        </mxCell>
        <mxCell id="GRRFxynxzcJDCFm0jAHo-39" value="invokeHandlerMethod" style="rounded=1;whiteSpace=wrap;html=1;fillColor=#d5e8d4;strokeColor=#82b366;" vertex="1" parent="1">
          <mxGeometry x="30" y="600" width="250" height="40" as="geometry" />
        </mxCell>
        <mxCell id="GRRFxynxzcJDCFm0jAHo-44" value="反射调用 handler 的目标方法" style="edgeStyle=orthogonalEdgeStyle;rounded=0;orthogonalLoop=1;jettySize=auto;html=1;" edge="1" parent="1" source="GRRFxynxzcJDCFm0jAHo-41" target="GRRFxynxzcJDCFm0jAHo-43">
          <mxGeometry relative="1" as="geometry" />
        </mxCell>
        <mxCell id="GRRFxynxzcJDCFm0jAHo-41" value="invocableMethod.invokeAndHandle" style="rounded=1;whiteSpace=wrap;html=1;fillColor=#d5e8d4;strokeColor=#82b366;" vertex="1" parent="1">
          <mxGeometry x="30" y="680" width="250" height="40" as="geometry" />
        </mxCell>
        <mxCell id="GRRFxynxzcJDCFm0jAHo-46" value="" style="edgeStyle=orthogonalEdgeStyle;rounded=0;orthogonalLoop=1;jettySize=auto;html=1;" edge="1" parent="1" source="GRRFxynxzcJDCFm0jAHo-43" target="GRRFxynxzcJDCFm0jAHo-45">
          <mxGeometry relative="1" as="geometry" />
        </mxCell>
        <mxCell id="GRRFxynxzcJDCFm0jAHo-48" value="处理返回值" style="edgeLabel;html=1;align=center;verticalAlign=middle;resizable=0;points=[];" vertex="1" connectable="0" parent="GRRFxynxzcJDCFm0jAHo-46">
          <mxGeometry x="-0.08" relative="1" as="geometry">
            <mxPoint as="offset" />
          </mxGeometry>
        </mxCell>
        <mxCell id="GRRFxynxzcJDCFm0jAHo-43" value="doInvoke(args)" style="rounded=1;whiteSpace=wrap;html=1;fillColor=#d5e8d4;strokeColor=#82b366;" vertex="1" parent="1">
          <mxGeometry x="30" y="770" width="250" height="40" as="geometry" />
        </mxCell>
        <mxCell id="GRRFxynxzcJDCFm0jAHo-50" value="" style="edgeStyle=orthogonalEdgeStyle;rounded=0;orthogonalLoop=1;jettySize=auto;html=1;" edge="1" parent="1" source="GRRFxynxzcJDCFm0jAHo-45" target="GRRFxynxzcJDCFm0jAHo-49">
          <mxGeometry relative="1" as="geometry" />
        </mxCell>
        <mxCell id="GRRFxynxzcJDCFm0jAHo-51" value="如果有 modelAndView 构造之后返回" style="edgeLabel;html=1;align=center;verticalAlign=middle;resizable=0;points=[];" vertex="1" connectable="0" parent="GRRFxynxzcJDCFm0jAHo-50">
          <mxGeometry x="-0.1467" relative="1" as="geometry">
            <mxPoint as="offset" />
          </mxGeometry>
        </mxCell>
        <mxCell id="GRRFxynxzcJDCFm0jAHo-45" value="returnValueHandlers.handleReturnValue" style="rounded=1;whiteSpace=wrap;html=1;fillColor=#d5e8d4;strokeColor=#82b366;" vertex="1" parent="1">
          <mxGeometry x="30" y="860" width="250" height="40" as="geometry" />
        </mxCell>
        <mxCell id="GRRFxynxzcJDCFm0jAHo-49" value="getModelAndView(mavContainer, modelFactory, webRequest)" style="rounded=1;whiteSpace=wrap;html=1;fillColor=#d5e8d4;strokeColor=#82b366;" vertex="1" parent="1">
          <mxGeometry x="30" y="950" width="250" height="40" as="geometry" />
        </mxCell>
        <mxCell id="GRRFxynxzcJDCFm0jAHo-55" value="" style="edgeStyle=orthogonalEdgeStyle;rounded=0;orthogonalLoop=1;jettySize=auto;html=1;" edge="1" parent="1" source="GRRFxynxzcJDCFm0jAHo-52" target="GRRFxynxzcJDCFm0jAHo-54">
          <mxGeometry relative="1" as="geometry" />
        </mxCell>
        <mxCell id="GRRFxynxzcJDCFm0jAHo-57" value="执行拦截器 post 方法" style="edgeLabel;html=1;align=center;verticalAlign=middle;resizable=0;points=[];" vertex="1" connectable="0" parent="GRRFxynxzcJDCFm0jAHo-55">
          <mxGeometry x="-0.0894" y="1" relative="1" as="geometry">
            <mxPoint as="offset" />
          </mxGeometry>
        </mxCell>
        <mxCell id="GRRFxynxzcJDCFm0jAHo-52" value="applyDefaultViewName(processedRequest, mv)" style="rounded=1;whiteSpace=wrap;html=1;fillColor=#f5f5f5;strokeColor=#666666;fontColor=#333333;" vertex="1" parent="1">
          <mxGeometry x="410" y="700" width="260" height="40" as="geometry" />
        </mxCell>
        <mxCell id="GRRFxynxzcJDCFm0jAHo-59" value="" style="edgeStyle=orthogonalEdgeStyle;rounded=0;orthogonalLoop=1;jettySize=auto;html=1;" edge="1" parent="1" source="GRRFxynxzcJDCFm0jAHo-54" target="GRRFxynxzcJDCFm0jAHo-58">
          <mxGeometry relative="1" as="geometry" />
        </mxCell>
        <mxCell id="GRRFxynxzcJDCFm0jAHo-60" value="处理分发结果" style="edgeLabel;html=1;align=center;verticalAlign=middle;resizable=0;points=[];" vertex="1" connectable="0" parent="GRRFxynxzcJDCFm0jAHo-59">
          <mxGeometry x="-0.0667" y="1" relative="1" as="geometry">
            <mxPoint as="offset" />
          </mxGeometry>
        </mxCell>
        <mxCell id="GRRFxynxzcJDCFm0jAHo-54" value="mappedHandler.applyPostHandle" style="rounded=1;whiteSpace=wrap;html=1;fillColor=#f5f5f5;strokeColor=#666666;fontColor=#333333;" vertex="1" parent="1">
          <mxGeometry x="410" y="790" width="260" height="40" as="geometry" />
        </mxCell>
        <mxCell id="GRRFxynxzcJDCFm0jAHo-58" value="processDispatchResult" style="rounded=1;whiteSpace=wrap;html=1;fillColor=#f5f5f5;strokeColor=#666666;fontColor=#333333;" vertex="1" parent="1">
          <mxGeometry x="410" y="890" width="260" height="40" as="geometry" />
        </mxCell>
      </root>
    </mxGraphModel>
  </diagram>
</mxfile>
